<svg width="74" height="86" viewBox="0 0 74 86" fill="none" xmlns="http://www.w3.org/2000/svg">
<path d="M69.4056 2.47651C64.8821 -1.29741 58.1557 -0.689774 54.3818 3.8337C50.6079 8.35718 51.2155 15.0835 55.739 18.8575C60.2625 22.6314 66.9888 22.0238 70.7627 17.5003C74.5367 12.9768 73.929 6.25044 69.4056 2.47651ZM-1.20048e-06 85.667L21.6789 77.7071L3.94597 62.9126L-1.20048e-06 85.667ZM61.0366 9.38575L58.4294 12.5108L61.5008 15.0732L64.108 11.9482L61.0366 9.38575ZM53.215 18.7607L48.0007 25.0107L51.0721 27.5732L56.2864 21.3232L53.215 18.7607ZM42.7863 31.2607L37.572 37.5107L40.6434 40.0732L45.8577 33.8232L42.7863 31.2607ZM32.3576 43.7608L27.1432 50.0108L30.2147 52.5732L35.429 46.3232L32.3576 43.7608ZM21.9289 56.2607L16.7145 62.5107L19.786 65.0732L25.0003 58.8232L21.9289 56.2607ZM11.5002 68.7607L6.28582 75.0107L9.35724 77.5732L14.5716 71.3232L11.5002 68.7607Z" fill="#272727"/>
</svg>
