<svg width="75" height="77" viewBox="0 0 75 77" fill="none" xmlns="http://www.w3.org/2000/svg">
<path d="M74.6435 49.6997C72.3306 57.093 67.8153 63.6038 61.7015 68.3612C55.5877 73.1185 48.167 75.8956 40.432 76.321C32.697 76.7463 25.0166 74.7996 18.4181 70.7412C11.8195 66.6829 6.61752 60.7064 3.50792 53.6112C0.398314 46.5161 -0.470624 38.6406 1.01734 31.0381C2.5053 23.4357 6.2792 16.4689 11.8342 11.0696C17.3893 5.67027 24.4606 2.09595 32.1022 0.824711C39.7439 -0.446524 47.5915 0.645949 54.5954 3.956L53.4336 6.41436C46.9304 3.34094 39.6438 2.32657 32.5484 3.50692C25.4531 4.68728 18.8873 8.00608 13.7294 13.0194C8.57148 18.0327 5.06737 24.5015 3.68578 31.5604C2.30419 38.6193 3.11101 45.9318 5.99831 52.5198C8.88561 59.1077 13.7157 64.6569 19.8425 68.4252C25.9693 72.1934 33.1007 74.0009 40.2827 73.606C47.4648 73.2111 54.3549 70.6325 60.0317 66.2152C65.7084 61.798 69.9009 55.7526 72.0485 48.8878L74.6435 49.6997Z" fill="#A7BEB4"/>
</svg>
