<svg width="1340" height="452" viewBox="0 0 1340 452" fill="none" xmlns="http://www.w3.org/2000/svg">
<rect x="1" y="1" width="1338" height="450" rx="15" stroke="#272727" stroke-width="2"/>
<rect x="8" width="2" height="452" rx="1" fill="#1A1A1A"/>
<rect x="17" width="2" height="452" rx="1" fill="#1A1A1A"/>
<rect x="26" width="2" height="452" rx="1" fill="#1A1A1A"/>
<rect x="35" width="2" height="452" rx="1" fill="#1A1A1A"/>
<rect x="44" width="2" height="452" rx="1" fill="#1A1A1A"/>
<rect x="53" width="2" height="452" rx="1" fill="#1A1A1A"/>
<rect x="62" width="2" height="452" rx="1" fill="#1A1A1A"/>
<rect x="71" width="2" height="452" rx="1" fill="#1A1A1A"/>
<rect x="80" width="2" height="452" rx="1" fill="#1A1A1A"/>
<rect x="89" width="2" height="452" rx="1" fill="#1A1A1A"/>
<rect x="98" width="2" height="452" rx="1" fill="#1A1A1A"/>
<rect x="107" width="2" height="452" rx="1" fill="#1A1A1A"/>
<rect x="116" width="2" height="452" rx="1" fill="#1A1A1A"/>
<rect x="125" width="2" height="452" rx="1" fill="#1A1A1A"/>
<rect x="134" width="2" height="452" rx="1" fill="#1A1A1A"/>
<rect x="143" width="2" height="452" rx="1" fill="#1A1A1A"/>
<rect x="152" width="2" height="452" rx="1" fill="#1A1A1A"/>
<rect x="161" width="2" height="452" rx="1" fill="#1A1A1A"/>
<rect x="170" width="2" height="452" rx="1" fill="#1A1A1A"/>
<rect x="179" width="2" height="452" rx="1" fill="#1A1A1A"/>
<rect x="188" width="2" height="452" rx="1" fill="#1A1A1A"/>
<rect x="197" width="2" height="452" rx="1" fill="#1A1A1A"/>
<rect x="206" width="2" height="452" rx="1" fill="#1A1A1A"/>
<rect x="215" width="2" height="452" rx="1" fill="#1A1A1A"/>
<rect x="224" width="2" height="452" rx="1" fill="#1A1A1A"/>
<rect x="233" width="2" height="452" rx="1" fill="#1A1A1A"/>
<rect x="242" width="2" height="452" rx="1" fill="#1A1A1A"/>
<rect x="251" width="2" height="452" rx="1" fill="#1A1A1A"/>
<rect x="260" width="2" height="452" rx="1" fill="#1A1A1A"/>
<rect x="269" width="2" height="452" rx="1" fill="#1A1A1A"/>
<rect x="278" width="2" height="452" rx="1" fill="#1A1A1A"/>
<rect x="287" width="2" height="452" rx="1" fill="#1A1A1A"/>
<rect x="296" width="2" height="452" rx="1" fill="#1A1A1A"/>
<rect x="305" width="2" height="452" rx="1" fill="#1A1A1A"/>
<rect x="314" width="2" height="452" rx="1" fill="#1A1A1A"/>
<rect x="323" width="2" height="452" rx="1" fill="#1A1A1A"/>
<rect x="332" width="2" height="452" rx="1" fill="#1A1A1A"/>
<rect x="341" width="2" height="452" rx="1" fill="#1A1A1A"/>
<rect x="350" width="2" height="452" rx="1" fill="#1A1A1A"/>
<rect x="359" width="2" height="452" rx="1" fill="#1A1A1A"/>
<rect x="368" width="2" height="452" rx="1" fill="#1A1A1A"/>
<rect x="377" width="2" height="452" rx="1" fill="#1A1A1A"/>
<rect x="386" width="2" height="452" rx="1" fill="#1A1A1A"/>
<rect x="395" width="2" height="452" rx="1" fill="#1A1A1A"/>
<rect x="404" width="2" height="452" rx="1" fill="#1A1A1A"/>
<rect x="413" width="2" height="452" rx="1" fill="#1A1A1A"/>
<rect x="422" width="2" height="452" rx="1" fill="#1A1A1A"/>
<rect x="431" width="2" height="452" rx="1" fill="#1A1A1A"/>
<rect x="440" width="2" height="452" rx="1" fill="#1A1A1A"/>
<rect x="449" width="2" height="452" rx="1" fill="#1A1A1A"/>
<rect x="458" width="2" height="452" rx="1" fill="#1A1A1A"/>
<rect x="467" width="2" height="452" rx="1" fill="#1A1A1A"/>
<rect x="476" width="2" height="452" rx="1" fill="#1A1A1A"/>
<rect x="485" width="2" height="452" rx="1" fill="#1A1A1A"/>
<rect x="494" width="2" height="452" rx="1" fill="#1A1A1A"/>
<rect x="503" width="2" height="452" rx="1" fill="#1A1A1A"/>
<rect x="512" width="2" height="452" rx="1" fill="#1A1A1A"/>
<rect x="521" width="2" height="452" rx="1" fill="#1A1A1A"/>
<rect x="530" width="2" height="452" rx="1" fill="#1A1A1A"/>
<rect x="539" width="2" height="452" rx="1" fill="#1A1A1A"/>
<rect x="548" width="2" height="452" rx="1" fill="#1A1A1A"/>
<rect x="557" width="2" height="452" rx="1" fill="#1A1A1A"/>
<rect x="566" width="2" height="452" rx="1" fill="#1A1A1A"/>
<rect x="575" width="2" height="452" rx="1" fill="#1A1A1A"/>
<rect x="584" width="2" height="452" rx="1" fill="#1A1A1A"/>
<rect x="593" width="2" height="452" rx="1" fill="#1A1A1A"/>
<rect x="602" width="2" height="452" rx="1" fill="#1A1A1A"/>
<rect x="611" width="2" height="452" rx="1" fill="#1A1A1A"/>
<rect x="620" width="2" height="452" rx="1" fill="#1A1A1A"/>
<rect x="629" width="2" height="452" rx="1" fill="#1A1A1A"/>
<rect x="638" width="2" height="452" rx="1" fill="#1A1A1A"/>
<rect x="647" width="2" height="452" rx="1" fill="#1A1A1A"/>
<rect x="656" width="2" height="452" rx="1" fill="#1A1A1A"/>
<rect x="665" width="2" height="452" rx="1" fill="#1A1A1A"/>
<rect x="674" width="2" height="452" rx="1" fill="#1A1A1A"/>
<rect x="683" width="2" height="452" rx="1" fill="#1A1A1A"/>
<rect x="692" width="2" height="452" rx="1" fill="#1A1A1A"/>
<rect x="701" width="2" height="452" rx="1" fill="#1A1A1A"/>
<rect x="710" width="2" height="452" rx="1" fill="#1A1A1A"/>
<rect x="719" width="2" height="452" rx="1" fill="#1A1A1A"/>
<rect x="728" width="2" height="452" rx="1" fill="#1A1A1A"/>
<rect x="737" width="2" height="452" rx="1" fill="#1A1A1A"/>
<rect x="746" width="2" height="452" rx="1" fill="#1A1A1A"/>
<rect x="755" width="2" height="452" rx="1" fill="#1A1A1A"/>
<rect x="764" width="2" height="452" rx="1" fill="#1A1A1A"/>
<rect x="773" width="2" height="452" rx="1" fill="#1A1A1A"/>
<rect x="782" width="2" height="452" rx="1" fill="#1A1A1A"/>
<rect x="791" width="2" height="452" rx="1" fill="#1A1A1A"/>
<rect x="800" width="2" height="452" rx="1" fill="#1A1A1A"/>
<rect x="809" width="2" height="452" rx="1" fill="#1A1A1A"/>
<rect x="818" width="2" height="452" rx="1" fill="#1A1A1A"/>
<rect x="827" width="2" height="452" rx="1" fill="#1A1A1A"/>
<rect x="836" width="2" height="452" rx="1" fill="#1A1A1A"/>
<rect x="845" width="2" height="452" rx="1" fill="#1A1A1A"/>
<rect x="854" width="2" height="452" rx="1" fill="#1A1A1A"/>
<rect x="863" width="2" height="452" rx="1" fill="#1A1A1A"/>
<rect x="872" width="2" height="452" rx="1" fill="#1A1A1A"/>
<rect x="881" width="2" height="452" rx="1" fill="#1A1A1A"/>
<rect x="890" width="2" height="452" rx="1" fill="#1A1A1A"/>
<rect x="899" width="2" height="452" rx="1" fill="#1A1A1A"/>
<rect x="908" width="2" height="452" rx="1" fill="#1A1A1A"/>
<rect x="917" width="2" height="452" rx="1" fill="#1A1A1A"/>
<rect x="926" width="2" height="452" rx="1" fill="#1A1A1A"/>
<rect x="935" width="2" height="452" rx="1" fill="#1A1A1A"/>
<rect x="944" width="2" height="452" rx="1" fill="#1A1A1A"/>
<rect x="953" width="2" height="452" rx="1" fill="#1A1A1A"/>
<rect x="962" width="2" height="452" rx="1" fill="#1A1A1A"/>
<rect x="971" width="2" height="452" rx="1" fill="#1A1A1A"/>
<rect x="980" width="2" height="452" rx="1" fill="#1A1A1A"/>
<rect x="989" width="2" height="452" rx="1" fill="#1A1A1A"/>
<rect x="998" width="2" height="452" rx="1" fill="#1A1A1A"/>
<rect x="1007" width="2" height="452" rx="1" fill="#1A1A1A"/>
<rect x="1016" width="2" height="452" rx="1" fill="#1A1A1A"/>
<rect x="1025" width="2" height="452" rx="1" fill="#1A1A1A"/>
<rect x="1034" width="2" height="452" rx="1" fill="#1A1A1A"/>
<rect x="1043" width="2" height="452" rx="1" fill="#1A1A1A"/>
<rect x="1052" width="2" height="452" rx="1" fill="#1A1A1A"/>
<rect x="1061" width="2" height="452" rx="1" fill="#1A1A1A"/>
<rect x="1070" width="2" height="452" rx="1" fill="#1A1A1A"/>
<rect x="1079" width="2" height="452" rx="1" fill="#1A1A1A"/>
<rect x="1088" width="2" height="452" rx="1" fill="#1A1A1A"/>
<rect x="1097" width="2" height="452" rx="1" fill="#1A1A1A"/>
<rect x="1106" width="2" height="452" rx="1" fill="#1A1A1A"/>
<rect x="1115" width="2" height="452" rx="1" fill="#1A1A1A"/>
<rect x="1124" width="2" height="452" rx="1" fill="#1A1A1A"/>
<rect x="1133" width="2" height="452" rx="1" fill="#1A1A1A"/>
<rect x="1142" width="2" height="452" rx="1" fill="#1A1A1A"/>
<rect x="1151" width="2" height="452" rx="1" fill="#1A1A1A"/>
<rect x="1160" width="2" height="452" rx="1" fill="#1A1A1A"/>
<rect x="1169" width="2" height="452" rx="1" fill="#1A1A1A"/>
<rect x="1178" width="2" height="452" rx="1" fill="#1A1A1A"/>
<rect x="1187" width="2" height="452" rx="1" fill="#1A1A1A"/>
<rect x="1196" width="2" height="452" rx="1" fill="#1A1A1A"/>
<rect x="1205" width="2" height="452" rx="1" fill="#1A1A1A"/>
<rect x="1214" width="2" height="452" rx="1" fill="#1A1A1A"/>
<rect x="1223" width="2" height="452" rx="1" fill="#1A1A1A"/>
<rect x="1232" width="2" height="452" rx="1" fill="#1A1A1A"/>
<rect x="1241" width="2" height="452" rx="1" fill="#1A1A1A"/>
<rect x="1250" width="2" height="452" rx="1" fill="#1A1A1A"/>
<rect x="1259" width="2" height="452" rx="1" fill="#1A1A1A"/>
<rect x="1268" width="2" height="452" rx="1" fill="#1A1A1A"/>
<rect x="1277" width="2" height="452" rx="1" fill="#1A1A1A"/>
<rect x="1286" width="2" height="452" rx="1" fill="#1A1A1A"/>
<rect x="1295" width="2" height="452" rx="1" fill="#1A1A1A"/>
<rect x="1304" width="2" height="452" rx="1" fill="#1A1A1A"/>
<rect x="1313" width="2" height="452" rx="1" fill="#1A1A1A"/>
<rect x="1322" width="2" height="452" rx="1" fill="#1A1A1A"/>
<rect x="1331" width="2" height="452" rx="1" fill="#1A1A1A"/>
</svg>
