<svg xmlns="http://www.w3.org/2000/svg" height="50" viewBox="0 0 112 70" fill="none"><g fill="#707070" clip-path="url(#a)"><path d="M35.34 27.106c0 1.193.132 2.158.36 2.878.265.7.587 1.476 1.023 2.328.17.265.227.511.227.738 0 .322-.19.644-.606.966l-2.028 1.363c-.284.189-.587.284-.833.284-.322 0-.645-.17-.967-.455a10.4 10.4 0 0 1-1.156-1.514 28 28 0 0 1-1.004-1.893c-2.52 2.972-5.685 4.448-9.493 4.448-2.71 0-4.87-.776-6.462-2.328-1.573-1.552-2.388-3.616-2.388-6.19 0-2.745.967-4.96 2.938-6.644 1.97-1.685 4.566-2.518 7.901-2.518 1.1 0 2.217.095 3.43.265s2.425.417 3.714.7v-2.347c0-2.442-.512-4.164-1.516-5.149-1.023-1.003-2.767-1.476-5.268-1.476-1.137 0-2.293.133-3.486.417-1.194.283-2.35.643-3.487 1.097-.512.227-.91.36-1.137.417s-.379.095-.511.095c-.455 0-.683-.322-.683-1.004v-1.57c0-.512.057-.91.228-1.137.17-.227.455-.454.91-.681 1.136-.587 2.482-1.06 4.073-1.458 1.573-.416 3.26-.605 5.04-.605 3.847 0 6.652.87 8.452 2.612 1.781 1.741 2.672 4.391 2.672 7.931v10.45h.057zM22.246 32.01c1.061 0 2.16-.19 3.316-.587 1.156-.378 2.198-1.098 3.07-2.063.511-.606.91-1.287 1.099-2.063.19-.776.322-1.704.322-2.802v-1.363a27 27 0 0 0-2.975-.549 23.5 23.5 0 0 0-3.032-.189c-2.16 0-3.752.416-4.813 1.287-1.061.87-1.573 2.101-1.573 3.71 0 1.515.38 2.65 1.194 3.427.777.795 1.895 1.192 3.392 1.192m25.903 3.483c-.587 0-.966-.094-1.232-.322-.265-.189-.492-.643-.682-1.249L38.655 9.01c-.189-.644-.284-1.06-.284-1.287 0-.512.266-.814.777-.814h3.165c.606 0 1.023.094 1.25.321.266.19.455.644.645 1.25l5.42 21.333 5.04-21.333c.17-.644.36-1.06.606-1.25.265-.189.701-.321 1.288-.321h2.597c.606 0 1.023.094 1.288.321.265.19.493.644.606 1.25l5.098 21.598L71.74 8.48c.19-.644.417-1.06.644-1.25.265-.189.682-.321 1.25-.321h2.994c.512 0 .815.265.815.814 0 .17-.038.321-.056.51-.038.19-.095.455-.228.815l-7.769 24.91q-.285.966-.682 1.25c-.265.19-.682.322-1.232.322H64.71c-.607 0-1.024-.095-1.289-.322s-.493-.643-.606-1.287l-5.003-20.785-4.965 20.766c-.17.644-.36 1.06-.606 1.287-.265.227-.701.322-1.288.322h-2.805v-.019zm41.46.87c-1.686 0-3.353-.188-4.964-.586-1.61-.379-2.88-.814-3.714-1.287-.512-.284-.872-.606-1.004-.909a2.2 2.2 0 0 1-.19-.908v-1.647c0-.682.266-1.003.74-1.003.189 0 .378.037.587.094.19.057.492.19.814.322 1.1.492 2.293.87 3.544 1.136 1.288.265 2.558.378 3.847.378 2.027 0 3.619-.36 4.718-1.06s1.686-1.741 1.686-3.066c0-.909-.284-1.647-.871-2.253-.588-.606-1.687-1.155-3.26-1.685l-4.68-1.457c-2.35-.738-4.093-1.836-5.154-3.294-1.061-1.42-1.61-2.99-1.61-4.676 0-1.362.284-2.555.87-3.577a8.7 8.7 0 0 1 2.332-2.65c.966-.739 2.065-1.288 3.354-1.685 1.288-.38 2.652-.55 4.074-.55.7 0 1.459.038 2.16.133.739.094 1.421.227 2.103.36.644.17 1.25.321 1.838.51.588.19 1.023.379 1.365.587.454.265.776.511.966.814.19.265.284.606.284 1.06v1.514c0 .682-.265 1.023-.739 1.023-.265 0-.682-.133-1.231-.379q-2.758-1.25-6.197-1.25c-1.838 0-3.297.285-4.282.91-.986.624-1.516 1.552-1.516 2.877 0 .908.322 1.684.966 2.29s1.838 1.23 3.544 1.78l4.585 1.457c2.331.738 3.999 1.78 5.003 3.085 1.004 1.307 1.478 2.84 1.478 4.506 0 1.382-.284 2.65-.834 3.748a8.9 8.9 0 0 1-2.35 2.84c-1.004.813-2.198 1.381-3.581 1.797-1.516.474-3.032.7-4.68.7z"></path><path fill-rule="evenodd" d="M95.711 52.018C85.1 59.855 69.675 64 56.411 64c-18.59 0-35.34-6.871-47.979-18.286-1.004-.908-.095-2.12 1.1-1.42 13.68 7.932 30.564 12.74 48.016 12.74 11.786 0 24.71-2.442 36.628-7.477 1.763-.795 3.278 1.173 1.535 2.46z" clip-rule="evenodd"></path><path fill-rule="evenodd" d="M100.126 47.001c-1.364-1.741-8.963-.833-12.43-.416-1.023.132-1.194-.776-.266-1.458 6.064-4.259 16.031-3.028 17.206-1.609 1.156 1.458-.322 11.415-6.007 16.185-.871.738-1.705.36-1.326-.606 1.307-3.199 4.188-10.392 2.823-12.096" clip-rule="evenodd"></path></g><defs><clipPath id="a"><path fill="#fff" d="M8 6h97v58H8z"></path></clipPath></defs></svg>