<svg xmlns="http://www.w3.org/2000/svg" height="50" fill="none" viewBox="0 0 182 70"><path fill="#707070" d="M19.754 22.08c-.33 0-.412-.164-.247-.41l1.728-2.217c.165-.247.576-.41.905-.41h29.375c.33 0 .412.245.247.492l-1.399 2.135c-.164.246-.576.493-.822.493zM7.33 29.636c-.33 0-.412-.164-.248-.41l1.728-2.218c.165-.246.576-.41.905-.41h37.522c.329 0 .493.246.411.492l-.658 1.971c-.083.328-.412.493-.74.493zM27.242 37.19c-.33 0-.412-.245-.247-.492l1.152-2.053c.164-.246.494-.493.823-.493h16.456c.33 0 .494.247.494.575l-.165 1.971c0 .329-.329.575-.576.575zM112.652 20.602c-5.184 1.314-8.722 2.3-13.824 3.614-1.234.328-1.316.41-2.386-.822-1.234-1.396-2.14-2.299-3.867-3.12-5.184-2.546-10.203-1.807-14.894 1.232-5.595 3.613-8.475 8.951-8.392 15.603.082 6.57 4.607 11.99 11.108 12.893 5.595.74 10.285-1.232 13.988-5.42.74-.903 1.399-1.889 2.222-3.039H80.726c-1.728 0-2.14-1.067-1.564-2.463 1.07-2.546 3.045-6.816 4.197-8.951.247-.493.823-1.315 2.057-1.315h29.951c-.164 2.218-.164 4.435-.493 6.652-.906 5.913-3.127 11.333-6.748 16.096-5.924 7.802-13.659 12.647-23.45 13.961-8.064 1.068-15.552-.493-22.135-5.42-6.089-4.599-9.545-10.676-10.45-18.231-1.07-8.951 1.564-17 6.994-24.062 5.842-7.637 13.577-12.482 23.04-14.207 7.734-1.396 15.14-.493 21.805 4.024 4.361 2.874 7.488 6.816 9.545 11.58.493.738.164 1.149-.823 1.395"></path><path fill="#707070" d="M139.888 66.016c-7.488-.164-14.318-2.3-20.077-7.227-4.855-4.188-7.9-9.526-8.887-15.85-1.481-9.28 1.07-17.491 6.665-24.8 6.007-7.884 13.247-11.99 23.039-13.715 8.393-1.478 16.292-.657 23.451 4.188 6.5 4.435 10.532 10.43 11.602 18.314 1.399 11.086-1.81 20.12-9.463 27.84-5.43 5.501-12.095 8.95-19.748 10.51-2.221.411-4.443.493-6.582.74m19.583-33.177c-.082-1.068-.082-1.89-.247-2.71-1.481-8.13-8.969-12.73-16.786-10.923-7.652 1.725-12.589 6.57-14.399 14.29-1.481 6.405 1.646 12.893 7.57 15.52 4.526 1.971 9.051 1.725 13.412-.492 6.501-3.367 10.039-8.623 10.45-15.685"></path></svg>