<svg xmlns="http://www.w3.org/2000/svg" height="50" viewBox="0 0 242 70" fill="none"><path fill="#707070" d="M65 64H7V6h58zM33.112 32.628V51.16c0 2.725-1.129 3.426-2.92 3.426-1.868 0-2.647-1.285-3.503-2.803L22.25 54.47c1.285 2.725 3.816 4.983 8.176 4.983 4.828 0 8.137-2.57 8.137-8.215v-18.61zm18.029-.312c-4.867 0-7.982 3.115-7.982 7.203 0 4.438 2.609 6.54 6.541 8.214l1.362.585c2.492 1.09 3.971 1.752 3.971 3.62 0 1.558-1.44 2.687-3.698 2.687-2.686 0-4.205-1.402-5.373-3.31l-4.439 2.57c1.596 3.153 4.867 5.567 9.928 5.567 5.178 0 9.033-2.686 9.033-7.592 0-4.555-2.609-6.578-7.242-8.564l-1.362-.584c-2.336-1.012-3.349-1.675-3.349-3.31 0-1.323 1.013-2.336 2.61-2.336 1.557 0 2.568.662 3.503 2.336l4.244-2.725c-1.791-3.154-4.282-4.36-7.747-4.36zm28.108 17.241c4.281 0 7.323-2.347 7.323-7.297V24.293h-3.98v17.894c0 2.896-1.39 3.886-3.531 3.886-1.878 0-2.93-1.1-3.831-2.676L72 45.34c1.202 2.31 3.455 4.217 7.249 4.217m21.633-9.497h-4.32c-3.567.037-6.196 1.43-6.196 4.62 0 3.447 2.554 4.877 5.67 4.877 2.33 0 3.832-.88 4.958-2.53l-.112 2.2h3.793v-9.094c0-4.546-2.854-6.636-6.648-6.636-3.342 0-5.22 1.136-6.61 2.75l2.179 2.163c.864-.953 2.065-1.833 4.131-1.833 2.028 0 3.155 1.026 3.155 3.483m0 2.567v1.21c0 1.686-1.578 2.75-3.794 2.75-1.953 0-3.004-.697-3.004-2.017 0-1.357 1.09-1.943 2.742-1.943zm14.197 6.93h.488l8-15.73h-3.869l-3.192 6.82c-.564 1.283-1.014 3.336-1.014 3.336s-.489-2.053-1.089-3.336l-3.193-6.82h-4.206zm20.318-9.497h-4.319c-3.568.037-6.197 1.43-6.197 4.62 0 3.447 2.554 4.877 5.671 4.877 2.329 0 3.831-.88 4.958-2.53l-.113 2.2h3.794v-9.094c0-4.546-2.855-6.636-6.648-6.636-3.343 0-5.221 1.136-6.61 2.75l2.178 2.163c.864-.953 2.066-1.833 4.131-1.833 2.029 0 3.155 1.026 3.155 3.483m0 2.567v1.21c0 1.686-1.577 2.75-3.793 2.75-1.953 0-3.005-.697-3.005-2.017 0-1.357 1.09-1.943 2.742-1.943zm16.037 6.93c4.808 0 8.301-2.53 8.301-6.894 0-3.996-2.329-5.976-6.686-7.846l-1.652-.734c-2.592-1.1-3.681-1.943-3.681-3.813 0-1.687 1.277-2.897 3.305-2.897 1.991 0 3.117.77 4.094 2.42l3.117-1.87c-1.54-2.676-3.831-3.923-7.211-3.923-4.244 0-7.173 2.64-7.173 6.343 0 3.85 2.253 5.684 5.971 7.297l1.69.733c2.78 1.21 4.282 2.164 4.282 4.327 0 2.053-1.84 3.41-4.432 3.41-3.117 0-4.657-1.54-5.859-3.483l-3.267 1.76c1.427 2.823 4.356 5.17 9.201 5.17m20.056 0c3.042 0 4.92-1.064 6.46-2.787l-2.591-2.2c-.864.953-1.991 1.723-3.869 1.723-2.817 0-4.507-2.016-4.507-4.766s1.69-4.767 4.507-4.767c1.615 0 2.93.733 3.681 1.797l2.704-2.127c-1.502-1.833-3.418-2.933-6.385-2.933-4.807 0-8.413 3.446-8.413 8.03 0 4.62 3.606 8.03 8.413 8.03m10.066-.33h3.793v-7.48c0-3.447 1.54-4.73 3.793-4.73.864 0 1.465.22 2.066.513l1.277-3.337c-.676-.403-1.465-.66-2.592-.66-1.727 0-3.53.77-4.582 3.19l.038-2.896h-3.793zm16.037-18.92c1.352 0 2.516-.99 2.516-2.457 0-1.393-1.164-2.42-2.516-2.42s-2.517 1.027-2.517 2.42c0 1.467 1.165 2.457 2.517 2.457m-1.916 18.92h3.831v-15.4h-3.831zM204.428 57h3.831V46.587c.901 1.723 2.779 2.97 5.408 2.97 4.094 0 7.399-3.41 7.399-8.067s-3.267-7.993-7.324-7.993c-2.704 0-4.582 1.283-5.596 3.19l.113-2.86h-3.831zm8.263-10.707c-2.779 0-4.582-1.906-4.582-4.803 0-2.787 1.803-4.693 4.582-4.693 2.741 0 4.469 1.906 4.469 4.693 0 2.897-1.728 4.803-4.469 4.803m18.253 3.3c2.028 0 3.267-.733 4.056-1.466l-1.803-2.494c-.413.33-.976.734-1.878.734-.976 0-1.577-.514-1.577-2.274v-7.15h4.206v-3.116h-4.206v-8.03h-3.793v8.03h-2.366v3.116h2.366v7.077c0 4.107 2.028 5.573 4.995 5.573"></path></svg>