<svg height="40" viewBox="0 0 300 70" fill="none" xmlns="http://www.w3.org/2000/svg"><g clip-path="url(#prefix__clip0_1_57)" fill="#707070"><path d="M197.124 6.024h49.816v9.183h-19.761v48.314h-9.882V15.207h-20.173V6.024zM115.195 6.024v9.183h-39.93v14.774h32.112v9.183H75.264v15.173h39.931v9.184H65.383V15.208h-.004V6.024h49.816zM140.07 6.048h-12.931l46.316 57.497h12.969l-23.161-28.729 23.124-28.724-12.932.02-16.666 20.674L140.07 6.047zM153.339 47.118l-6.476-8.041-19.761 24.512h12.968l13.269-16.47z"></path><path fill-rule="evenodd" clip-rule="evenodd" d="M65.73 63.52L19.35 6H7v57.497h9.88V18.29l36.436 45.23H65.73z"></path><path d="M249.161 63.17c-.723 0-1.339-.25-1.854-.752a2.414 2.414 0 01-.764-1.825c-.006-.698.248-1.298.764-1.799a2.562 2.562 0 011.854-.75c.697 0 1.306.25 1.821.75.523.501.783 1.1.79 1.8-.007.474-.127.908-.368 1.297a2.668 2.668 0 01-.958.93 2.47 2.47 0 01-1.285.349zM266.026 38.948h4.379v16.848c-.007 1.549-.342 2.873-.998 3.987a6.636 6.636 0 01-2.758 2.563c-1.172.593-2.544.896-4.104.896-1.427 0-2.705-.257-3.843-.758-1.138-.5-2.042-1.252-2.705-2.24-.67-.988-.998-2.22-.998-3.697h4.386c.006.646.154 1.206.435 1.674.281.468.669.824 1.165 1.074.501.25 1.078.376 1.727.376.703 0 1.305-.145 1.794-.442.489-.29.864-.725 1.125-1.304.254-.574.388-1.285.395-2.129V38.948zM288.42 45.537c-.106-1.021-.575-1.819-1.392-2.385-.824-.574-1.888-.857-3.194-.857-.917 0-1.706.139-2.363.409-.656.276-1.165.645-1.513 1.113a2.718 2.718 0 00-.536 1.602c0 .5.121.935.355 1.298.235.369.549.678.958.929.401.257.85.467 1.339.639.495.171.991.316 1.486.435l2.283.56a15.8 15.8 0 012.658.856c.85.356 1.62.81 2.296 1.358a6.087 6.087 0 011.607 1.976c.395.771.596 1.674.596 2.715 0 1.404-.361 2.636-1.092 3.703-.729 1.061-1.78 1.891-3.16 2.49-1.372.594-3.032.897-4.987.897-1.888 0-3.535-.29-4.921-.87-1.392-.573-2.477-1.416-3.261-2.523-.783-1.107-1.205-2.458-1.265-4.046h4.339c.06.83.328 1.522.783 2.082.462.553 1.064.962 1.801 1.239.743.27 1.573.408 2.491.408.957 0 1.8-.145 2.53-.428.723-.283 1.292-.679 1.701-1.193.415-.507.623-1.107.629-1.792-.006-.626-.194-1.146-.556-1.555-.368-.408-.877-.751-1.527-1.028a15.697 15.697 0 00-2.289-.744l-2.771-.699c-2.002-.507-3.589-1.278-4.748-2.313-1.164-1.034-1.74-2.405-1.74-4.124 0-1.41.388-2.65 1.172-3.71.776-1.06 1.841-1.885 3.187-2.471 1.352-.593 2.878-.883 4.578-.883 1.728 0 3.241.29 4.547.883 1.305.586 2.33 1.403 3.072 2.444.744 1.042 1.132 2.234 1.152 3.585h-4.245z"></path></g><defs><clipPath id="prefix__clip0_1_57"><path fill="#fff" transform="translate(7 6)" d="M0 0h286v58H0z"></path></clipPath></defs></svg>