<svg xmlns="http://www.w3.org/2000/svg" height="40" viewBox="0 0 292 70" fill="none"><path fill="#707070" d="M58.677 64.86a6.14 6.14 0 0 1-4.331-1.787L18.212 26.96v31.657c0 3.352-2.739 6.103-6.106 6.103S6 62.137 6 58.618V12.257a6.12 6.12 0 0 1 3.773-5.642c2.277-.95 4.89-.42 6.65 1.326l36.134 36.112V12.257c0-3.352 2.739-6.103 6.106-6.103a6.11 6.11 0 0 1 6.106 6.103v46.361c0 3.352-2.738 6.103-6.106 6.103M86.93 6.07l-1.677 3.127L72.26 32.77l-1.677 2.975 1.677 2.974 12.994 22.804L87 64.65h33.954l1.676-3.435 9.697-19.523 4.332-8.853h-9.837l-24.802.07c-3.213-.042-6.19 2.877-6.19 6.102s2.963 6.145 6.19 6.103l14.951-.07-3.661 7.401H94.112L84.569 35.66l9.613-17.386h20.456l4.751 9.775h12.296l-7.741-18.544-1.677-3.436zM148.759 6c-3.214.041-6.064 2.988-6.008 6.172v15.92h12.212v-15.92c.042-3.24-2.794-6.214-6.176-6.173m19.562 58.86c-3.354 0-6.106-2.737-6.106-6.102V12.354c0-3.351 2.739-6.102 6.106-6.102a6.11 6.11 0 0 1 6.106 6.102v31.797L210.588 8.04a6.104 6.104 0 0 1 10.424 4.315v46.544c0 3.351-2.739 6.102-6.106 6.102a6.11 6.11 0 0 1-6.106-6.102V27.087l-36.133 36.112a6.11 6.11 0 0 1-4.332 1.787m97.879-29.409 19.003-18.908c2.375-2.374 2.375-6.242.014-8.63s-6.246-2.374-8.635-.014l-19.003 18.95-19.003-18.95c-2.376-2.374-6.26-2.374-8.635.014s-2.376 6.256.014 8.63l19.002 18.908-18.988 18.852c-2.376 2.374-2.376 6.242-.014 8.63 1.145 1.159 2.696 1.815 4.191 1.815 1.496 0 3.116-.586 4.304-1.787l18.961-18.894 18.961 18.894a6.1 6.1 0 0 0 4.304 1.787c1.606 0 3.129-.6 4.191-1.815 2.376-2.374 2.376-6.242-.014-8.63l-18.933-18.852M148.48 64.819c-3.214-.042-6.064-2.989-6.009-6.173V33.091h12.213v25.527c.042 3.24-2.795 6.214-6.176 6.172"></path></svg>