<svg xmlns="http://www.w3.org/2000/svg" height="40" viewBox="0 0 427 70" fill="none"><path fill="#707070" d="M109.036 34.797H92.861V18.53h17.054q9.363 0 9.363 8.26-.002 8.01-10.242 8.01m11.626-16.46c-2.231-1.984-5.318-2.977-9.303-2.977l-23.164.128V54.41h4.666l-.041-16.568h17.237q6.483 0 10.207-2.977 3.725-2.978 3.725-8.262 0-5.282-3.325-8.262h-.002zm30.209 27.897a8 8 0 0 1-2.215 3.31q-3.136 3.06-9.571 3.06c-3.875 0-6.847-.976-8.921-2.974-2.074-2-3.113-4.638-3.113-7.964q0-2.597.814-4.61.814-2.01 2.362-3.395 3.219-2.934 8.859-2.934 12.496 0 12.497 10.94c0 1.732-.237 3.254-.697 4.567m.846-14.357c-2.844-2.593-7.053-3.903-12.632-3.903q-7.905 0-12.213 3.972c-2.593 2.398-3.903 5.632-3.903 9.705q0 6.063 4.014 9.785 2.216 2.008 5.166 2.908t6.922.899c5.548 0 9.758-1.283 12.674-3.847 2.593-2.342 3.903-5.576 3.903-9.747q0-6.271-3.931-9.788zm35.291 15.482q0 7.857-14.078 7.857-4.304.002-7.249-.546t-4.784-1.81a7 7 0 0 1-2.256-2.508c-.558-1.032-.92-2.328-1.088-3.903l4.368-.042q0 3.093 2.292 4.555 2.46 1.756 8.717 1.756 9.84 0 9.841-4.931c0-1.924-1.115-3.245-3.301-3.973-.446-.14-3.099-.509-7.945-1.107-4.847-.598-7.89-1.136-9.086-1.61q-3.885-1.547-3.885-5.559c0-2.62 1.157-4.572 3.485-5.851q1.714-.794 4.288-1.234 2.573-.44 5.96-.439 13.553 0 13.553 8.503h-4.154c0-3.987-3.178-5.994-9.527-5.994-3.231 0-5.641.418-7.229 1.213-1.588.794-2.381 2.049-2.381 3.722q0 2.34 3.217 3.387 1.881.543 8.651 1.254c4.04.363 6.812.879 8.316 1.534q4.306 1.673 4.304 5.683zm17.154 7.099-1.778.25-1.108.085c-2.843 0-4.878-.412-6.151-1.237s-1.886-2.268-1.886-4.321v-17.78h-5.166v-2.612h5.14l.041-8.39h3.981v8.39h6.934V31.5l-6.934-.041v17.28c0 1.287.342 2.175 1.025 2.648s1.901.734 3.657.734q.377.042.837-.028a15 15 0 0 0 1.38-.315l.042 2.648zm27.537-5.896a11.9 11.9 0 0 1-3.718 2.049c-1.393.477-2.994.697-4.804.697q-12.49 0-12.489-10.315 0-4.803 3.196-7.519c2.132-1.81 5.13-2.715 9.002-2.715q5.849 0 8.877 2.736 3.028 2.735 3.029 7.332-.001 5.012-3.092 7.726m7.074-19.703h-3.981l-.042 4.391c-1.756-1.784-3.011-2.909-3.763-3.383q-3.345-1.838-8.652-1.837-7.776 0-11.871 3.552-3.888 3.26-3.886 9.442c0 2.035.327 3.85.982 5.436.656 1.587 1.612 2.96 2.868 4.073q4.102 3.426 11.597 3.427 9 0 12.768-4.924v4.544q0 4.348-2.737 6.73c-1.825 1.59-4.827 2.37-9.008 2.37-3.931 0-6.73-.558-8.401-1.623q-1.882-1.247-2.593-4.328h-4.098c.446 2.868 1.673 4.942 3.625 6.221 2.286 1.475 6.133 2.212 11.569 2.212 10.399 0 15.612-3.865 15.612-11.597V28.865zm21.536 2.583a21 21 0 0 0-3.34-.278q-9.816 0-9.816 10.765v12.48h-3.939l-.042-25.538 3.983.039v4.558h.209q1.004-2.694 3.175-4.085 2.379-1.346 7.101-1.346h2.672v3.429zm3.704 8.584q.753-4.354 3.383-6.74a11.9 11.9 0 0 1 3.886-2.074c1.447-.46 3.067-.691 4.89-.691 3.538 0 6.412.97 8.67 2.91s3.362 4.14 3.362 6.594zm24.579-7.88q-2.091-2.095-5.186-3.103c-2.063-.671-4.46-1.006-7.248-1.006q-7.736 0-12.005 3.596c-2.846 2.398-4.265 5.66-4.265 9.788 0 4.13 1.366 7.388 4.098 9.828 2.955 2.676 7.109 4.014 12.501 4.014q3.218 0 5.956-.73 2.74-.727 4.787-2.062 3.594-2.584 4.558-6.37h-4.305q-2.215 6.55-11.031 6.551-6.227 0-9.569-3.203-2.885-2.744-2.883-7.115H292.4c0-4.332-1.254-7.729-3.805-10.175zm45.869 11.833q0 11.375-18.347 11.375c-7.327 0-12.677-1.306-16.048-3.903q-4.138-3.219-4.137-9.825h4.923q0 10.618 15.261 10.618c4.879 0 8.405-.725 10.594-2.172q2.76-1.92 2.76-6.013 0-4.052-3.764-5.682c-1.422-.585-4.879-1.324-10.412-2.213q-10.412-1.589-13.505-3.174c-2.983-1.562-4.46-4.206-4.46-7.937 0-3.48 1.254-6.07 3.805-7.77q4.099-2.798 14.048-2.799 17.982 0 17.982 11.943h-4.967q0-8.947-13.351-8.946c-4.465 0-7.729.6-9.793 1.812-1.955 1.282-2.928 3.164-2.928 5.645q0 3.89 3.764 5.479 2.007.92 11.792 2.55c6.134.92 10.274 1.994 12.406 3.206 2.927 1.506 4.391 4.112 4.391 7.806zm40.005 3.87q-2.76 2.209-6.234 3.317t-7.784 1.106c-5.86 0-10.594-1.58-14.21-4.737-3.615-3.157-5.418-7.365-5.418-12.625q-.001-8.22 5.377-12.812 5.377-4.59 14.25-4.59 8.997 0 14.145 4.799 2.717 2.339 4.017 5.468 1.299 3.13 1.297 7.137 0 8.18-5.442 12.935m2.617 2.582q3.849-2.713 5.692-6.577 1.843-3.862 1.843-8.918c0-6.042-2.008-10.872-6.022-14.536q-3.22-3.007-7.778-4.468-4.559-1.463-10.413-1.464c-7.583 0-13.521 1.84-17.842 5.513q-6.482 5.511-6.482 14.952 0 9.188 6.542 14.826 6.543 5.637 17.87 5.638 4.431 0 7.732-.599 3.302-.6 5.604-1.84l7.273 5.042 3.039-2.79-7.044-4.778zm44.397 3.982h-33.658V15.431l4.625-.083v35.791h29.061l-.042 3.254zM54.707 3.034c4.966.05 11.278 1.274 16.092 6.132l.46.482.002.002c1.348 1.46 1.702 3.667 1.663 5.774-.04 2.215-.524 4.828-1.369 7.6-1.499 4.92-4.207 10.576-7.969 15.781 1.04.108 2.737.085 5.416-.384a7.6 7.6 0 0 1 1.514-.133c.415.013 1.064.081 1.657.463.33.213.66.535.876.989s.256.912.212 1.297c-.078.696-.43 1.221-.657 1.51-.49.627-1.226 1.195-1.972 1.666-.785.496-1.732.976-2.766 1.383v.001c-2.05.808-5.27 1.215-7.7 1.121l-.038-.002-.038-.002-.738-.056-.11-.008-.109-.02a16 16 0 0 0-.592-.098c-.066.392-.128.89-.232 1.62v-.001c-.195 5.974-1.234 9.812-3.262 12.26-2.116 2.553-4.98 3.186-7.448 3.634-3.418.62-5.815-.104-7.413-1.668-1.38-1.35-1.953-3.285-2.111-3.65-.433-.993-.673-2.2-.827-3.384-.159-1.212-.245-2.555-.309-3.888-.06-1.269-.075-2.521-.151-3.681-3.627 2.031-7.627 1.412-9.32 1.053h-.003a8.6 8.6 0 0 1-1.789-.592c-.47-.219-1.307-.66-1.804-1.443a2.7 2.7 0 0 1-.247-.503c-1.286 1.244-2.753 2.02-4.382 2.079-1.696.06-3.172-.67-4.368-1.656-2.315-1.907-4.21-5.282-5.7-8.718-1.526-3.518-2.766-7.436-3.64-10.743-.86-3.254-1.415-6.099-1.494-7.437v-.001c-.337-5.699 1.217-9.74 4.129-12.348 2.828-2.534 6.597-3.401 10.072-3.561 3.505-.162 6.994.383 9.563.947 1.294.284 2.378.578 3.142.803q.164.05.309.094c2.406-1.324 5.392-2.095 9.058-2.044h.001c1.972.026 3.768.18 5.406.442q.185-.053.431-.116c.492-.125 1.177-.28 2.012-.432 1.666-.302 3.96-.59 6.543-.564m-.61 1.283c-2.525.02-4.734.341-6.253.642-.76.15-1.35.297-1.725.399a9 9 0 0 0-.405.118l-.062.02-.041.016a1 1 0 0 0-.107.059 26.3 26.3 0 0 0-5.26-.59c-3.678-.051-6.554.773-8.792 2.113l-.06-.02a46 46 0 0 0-3.916-1.034c-2.514-.544-5.876-1.053-9.218-.89-3.331.163-6.734 1-9.227 3.241-2.52 2.266-3.994 5.858-3.672 11.264v.002c.074 1.19.598 3.92 1.457 7.167.864 3.263 2.082 7.11 3.571 10.546 1.478 3.408 3.266 6.518 5.312 8.202 1.036.852 2.195 1.385 3.45 1.338 1.258-.047 2.48-.673 3.65-1.866a134 134 0 0 1 5.528-5.311q.232-.212.358-.324a9.9 9.9 0 0 0 4.488 1.027q.005.157.021.312c-.382.382-.672.702-.914.96-.321.343-.545.564-.814.745-.47.318-1.154.566-2.827.887l-.78.143c-1.147.2-1.96.457-2.45.797-.253.175-.493.422-.586.763-.098.362.005.687.158.927.272.426.786.731 1.226.935a7.3 7.3 0 0 0 1.498.494c1.968.416 6.59 1.06 10.094-2.171-.036 2.562-.001 5.04.106 7.156.072 1.423.176 2.692.315 3.72.136 1.001.314 1.851.564 2.38.406.861 1.097 2.254 2.515 3.267 1.445 1.032 3.544 1.604 6.634 1.042 2.509-.456 4.333-1.142 5.631-2.286 1.314-1.158 2.005-2.708 2.41-4.699v-.004c.464-2.346 1.312-8.122 1.672-10.962q.23.09.473.154c.784.207 1.808.287 2.88.277 2.14-.02 4.687-.402 6.306-1.038.96-.378 1.83-.821 2.536-1.268.695-.438 1.277-.908 1.625-1.352.168-.215.34-.496.376-.819.02-.174 0-.368-.088-.556a1.03 1.03 0 0 0-.38-.426c-.28-.181-.63-.236-.955-.245a5.5 5.5 0 0 0-.89.058l-.349.055c-4.114.718-6.197.465-7.215.107a2.4 2.4 0 0 1-.675-.346c4.271-5.484 7.31-11.644 8.912-16.904.82-2.693 1.273-5.176 1.31-7.226.037-2.014-.324-3.762-1.3-4.82l-.444-.462c-4.623-4.664-10.793-5.752-15.67-5.714zM40.227 6.35c7.827.109 12.957 3.5 16.063 6.864 1.557 1.687 2.604 3.368 3.22 4.621.215.44.373.822.483 1.127-3.8-.4-6.246.121-7.6 1.435-1.504 1.458-1.406 3.615-.817 5.616.6 2.037 1.78 4.184 2.846 5.92.537.873 1.053 1.654 1.46 2.273.424.644.697 1.066.797 1.27.617 1.267 1.39 2.149 2.011 2.813.32.343.569.596.767.834q.08.096.133.173l-.333.084a6 6 0 0 0-.735.223c-.531.203-1.122.547-1.544 1.203-.367.57-.566 1.313-.558 2.267l.014.35c-.15 1.64-1.252 9.338-1.802 12.112-.372 1.831-.967 3.058-1.973 3.945-1.023.9-2.556 1.527-4.97 1.966-2.802.509-4.508-.034-5.594-.809-1.11-.793-1.678-1.9-2.073-2.736-.15-.32-.31-.98-.445-1.98-.133-.976-.234-2.205-.305-3.606-.141-2.801-.156-6.26-.042-9.711a.7.7 0 0 0-.047-.273 3.2 3.2 0 0 0-.224-.762c-.366-.838-1.097-1.582-1.987-1.894h.001c-.33-.117-.842-.298-1.449-.254a2.7 2.7 0 0 0-.902.235q.064-.303.178-.652c.232-.704.58-1.47.97-2.358.276-.632.621-1.218 1.023-2.01.386-.763.78-1.639 1.066-2.708.54-2.015.678-4.64-.193-8.44l-.188-.775c-.455-1.783-1.59-2.806-3.008-3.27-1.37-.449-2.97-.369-4.438-.081-1.48.29-2.903.805-3.961 1.304q-.355.169-.658.335c.024-.332.06-.713.114-1.133.196-1.546.62-3.593 1.522-5.623.903-2.029 2.276-4.02 4.363-5.494 2.08-1.468 4.919-2.455 8.814-2.401zm-4.602 34.436c.291-.021.558.061.894.18h.001c.489.171.952.619 1.185 1.15.228.523.188 1-.098 1.34-3.026 3.591-7.534 3.044-9.62 2.603a6 6 0 0 1-1.204-.396 3 3 0 0 1-.46-.258q-.032-.025-.058-.047c.268-.154.82-.35 1.83-.527 2.228-.389 3.325-.695 4.138-1.244.407-.274.72-.594 1.046-.942.33-.353.692-.756 1.234-1.269l.006-.008c.477-.448.841-.562 1.106-.582m-17.3-34.269c3.175-.155 6.407.33 8.86.861a44 44 0 0 1 2.832.711c-1.996 1.59-3.33 3.603-4.218 5.599-.975 2.19-1.424 4.376-1.63 6.009a22 22 0 0 0-.166 1.983 16 16 0 0 0-.008.759v.016l.012.096c.029 1.096.447 4.224-.171 7.97-.555 3.362 1.03 6.36 3.614 8.158l-.042.04A140 140 0 0 0 23 42.898l-1.18 1.186c-1.007 1.028-1.918 1.427-2.725 1.457-.811.03-1.652-.307-2.527-1.027-1.777-1.463-3.46-4.308-4.926-7.69-1.454-3.353-2.651-7.13-3.504-10.352-.856-3.236-1.347-5.853-1.413-6.9-.305-5.11 1.089-8.248 3.22-10.164 2.159-1.94 5.194-2.736 8.379-2.892zm42.07 33.966a3.7 3.7 0 0 0 1.116.597c1.342.472 3.7.685 7.906-.05l.3-.047a5 5 0 0 1 .523-.046c-.236.243-.614.547-1.13.873-.55.347-1.225.7-1.978 1.017l-.329.134c-1.41.555-3.776.924-5.817.943-1.02.01-1.905-.07-2.52-.232-.31-.081-.505-.172-.61-.249q-.043-.034-.055-.05c-.059-.946.116-1.495.328-1.826s.517-.527.88-.666c.184-.07.376-.122.575-.17.18-.045.41-.096.59-.15.063-.019.14-.045.221-.078M28.08 41.949l-.263.247c1.534-.273 2.237-.47 2.608-.623a11 11 0 0 1-1.443-.46c-.26.24-.565.52-.902.836m2.215-21.244c1.365-.267 2.699-.304 3.75.04 1.003.328 1.776 1.007 2.107 2.306 1.032 4.05.887 6.649.385 8.524-.253.943-.602 1.725-.965 2.443-.262.517-.56 1.05-.817 1.567l-.24.511c-.372.85-.758 1.697-1.015 2.482a9 9 0 0 0-.145.488c-4.907.163-8.913-3.813-8.169-8.323.616-3.73.25-7.077.195-8.105q.059-.046.154-.112a8 8 0 0 1 1.12-.621 16 16 0 0 1 3.64-1.2m23.813-15.02c4.856-.037 10.805 1.088 15.097 5.736.605.657.973 1.946.938 3.868-.034 1.885-.454 4.237-1.25 6.852-1.52 4.984-4.382 10.835-8.4 16.09-.216-.258-.488-.541-.752-.822 1.491-2.055 1.742-4.11 1.63-6.038-.058-.996-.213-1.978-.338-2.88-.127-.92-.224-1.765-.194-2.566.044-1.134.232-2.058.407-3.035.164-.919.309-1.87.26-2.991q.001-.006.004-.012c.04-.14.038-.272.033-.354a3 3 0 0 0-.119-.6c-.125-.436-.353-1.022-.686-1.701-.67-1.363-1.789-3.155-3.443-4.946A22.25 22.25 0 0 0 48.12 6.3a32.7 32.7 0 0 1 5.988-.614zm-.763 15.694c.923-.895 2.909-1.474 6.801-1.021-.002.799-.11 1.52-.248 2.29-.168.942-.38 1.974-.427 3.225-.035.932.078 1.883.205 2.805.13.94.275 1.846.328 2.772.096 1.635-.1 3.256-1.186 4.888a9 9 0 0 1-.705-1.07l-.203-.39c-.15-.307-.49-.826-.884-1.423-.41-.623-.914-1.387-1.438-2.239-1.053-1.714-2.154-3.733-2.7-5.589-.556-1.891-.466-3.352.457-4.248m-20.28.37a4 4 0 0 0-1.205.025 1.4 1.4 0 0 0-.434.151c-.114.068-.237.178-.264.346-.026.156.046.318.12.441.084.136.205.278.352.41.295.261.72.503 1.21.561a2.08 2.08 0 0 0 1.686-.59c.1-.106.193-.238.217-.376.03-.172-.057-.315-.15-.412a1.3 1.3 0 0 0-.376-.252c-.296-.14-.705-.25-1.156-.304m24.156-.449a3.9 3.9 0 0 0-1.169-.021c-.44.052-.836.158-1.119.292-.14.066-.26.142-.342.227-.081.084-.14.193-.12.315.017.105.091.217.186.317a1.97 1.97 0 0 0 1.593.558 2.15 2.15 0 0 0 1.146-.535c.141-.125.255-.258.331-.382.072-.118.123-.25.105-.364l-.003-.016-.008-.016a.42.42 0 0 0-.202-.237 1.3 1.3 0 0 0-.398-.138M45.733 5.477l.009-.002.027-.005q.005 0 .016-.002-.026.003-.052.009"></path></svg>