<svg xmlns="http://www.w3.org/2000/svg" height="55" viewBox="0 0 210 70" fill="none"><path fill="#707070" fill-rule="evenodd" d="M6.456 46.496a2.94 2.94 0 0 1-.024-3.108L28.5 7.4a2.938 2.938 0 0 1 5.17.305l20.159 43.722a2.94 2.94 0 0 1-1.826 4.043l-31.354 9.406a2.94 2.94 0 0 1-3.326-1.241zm24.587-28.574a1.102 1.102 0 0 1 2.091-.217l13.904 32.17a1.104 1.104 0 0 1-.697 1.489l-21.663 6.469a1.103 1.103 0 0 1-1.394-1.274zm80.592 33.216h6.161v-22.58h-6.161zm-.261-28.413q0-3.006 3.353-3.008 3.35 0 3.352 3.006 0 1.437-.839 2.232-.839.8-2.513.798-3.354 0-3.353-3.028m84.507 17.951-2.383.081q-2.686.082-3.999.97-1.314.886-1.312 2.707 0 2.604 2.989 2.604 2.142 0 3.42-1.232 1.285-1.233 1.285-3.272zm1.817 10.46-1.192-3.07h-.161q-1.555 1.961-3.202 2.716-1.644.758-4.291.758-3.25 0-5.119-1.857-1.867-1.857-1.867-5.293 0-3.59 2.514-5.3 2.516-1.702 7.582-1.888l3.919-.12v-.99q0-3.43-3.513-3.433-2.709 0-6.361 1.636l-2.041-4.16q3.898-2.037 8.643-2.039 4.542 0 6.969 1.98Q202 32.056 202 36.092v15.043zm-33.818 0h-6.16V37.948q0-2.439-.817-3.663t-2.575-1.222q-2.362 0-3.433 1.736-1.072 1.736-1.072 5.715v10.623h-6.156V28.56h4.705l.828 2.888h.344q.909-1.555 2.625-2.433 1.717-.878 3.939-.878 5.069 0 6.866 3.311h.544q.909-1.575 2.677-2.444 1.765-.868 3.987-.867 3.84 0 5.807 1.97 1.97 1.965 1.969 6.31v14.72h-6.18V37.95q0-2.439-.817-3.663-.82-1.222-2.576-1.222-2.262 0-3.381 1.616-1.122 1.614-1.122 5.127zm-26.815-1.414q2.414-1.815 2.414-5.29 0-1.674-.586-2.887a5.9 5.9 0 0 0-1.817-2.14q-1.231-.93-3.878-2-2.969-1.191-3.849-1.797t-.877-1.433q0-1.474 2.727-1.474a10 10 0 0 1 3.008.463q1.474.465 3.172 1.192l1.858-4.443a18.7 18.7 0 0 0-7.938-1.776q-4.28 0-6.613 1.645-2.333 1.647-2.333 4.654 0 1.758.555 2.96.555 1.198 1.778 2.128 1.221.93 3.827 2.021 1.816.767 2.908 1.342t1.536 1.03q.444.458.444 1.183 0 1.938-3.355 1.938-1.634 0-3.785-.544a22 22 0 0 1-3.867-1.355v5.088q1.512.647 3.25.98t4.202.333q4.803 0 7.219-1.818m-28.699-21.404a10 10 0 0 0-2.08-.18 6.97 6.97 0 0 0-3.889 1.16 8.5 8.5 0 0 0-2.838 3.058h-.3l-.911-3.796h-4.664v22.575h6.158V39.646q0-2.724 1.647-4.24 1.647-1.514 4.596-1.514 1.067 0 1.817.2zm-32.812 7.188h2.059q2.888 0 4.321-1.14 1.438-1.14 1.436-3.323 0-2.2-1.203-3.25-1.202-1.05-3.768-1.05h-2.845zm14.137-4.683q0 4.765-2.98 7.288-2.978 2.526-8.473 2.526h-2.684v10.498h-6.26v-29.52h9.432q5.37 0 8.168 2.312t2.795 6.896" clip-rule="evenodd"></path></svg>