<svg xmlns="http://www.w3.org/2000/svg" height="45" viewBox="0 0 280 70" fill="none"><path fill="#707070" d="M61.752 4a6.14 6.14 0 0 1 6.142 6.142v50.61a6.14 6.14 0 0 1-6.142 6.142h-50.61A6.14 6.14 0 0 1 5 60.752v-50.61A6.14 6.14 0 0 1 11.142 4zm-7.111 29.235q-2.192 0-4.153.471c-1.96.47-2.457.805-3.45 1.47a7.35 7.35 0 0 0-2.355 2.547q-.866 1.546-.866 3.699 0 2.748 1.586 4.69 1.587 1.94 4.816 3.285a65 65 0 0 1 2.365 1.019c1.095.5 1.362.678 1.893 1.037q.798.539 1.26 1.173.46.634.461 1.44a2.2 2.2 0 0 1-.289 1.106c-.288.509-.483.634-.874.884q-.586.375-1.46.586-.876.21-2.049.211a11.7 11.7 0 0 1-3.96-.702 11.8 11.8 0 0 1-3.633-2.103v6.15q1.5.767 3.547 1.152c2.047.384 2.803.384 4.315.384q2.211 0 4.201-.422 1.99-.423 3.49-1.394a7.1 7.1 0 0 0 2.373-2.536c.875-1.566.875-2.335.875-3.872q0-1.673-.5-2.93c-.5-1.26-.813-1.587-1.441-2.24a10.6 10.6 0 0 0-2.259-1.758c-1.317-.778-1.868-1.01-2.97-1.47a38 38 0 0 1-2.173-.97 11 11 0 0 1-1.634-.961q-.674-.49-1.038-1.038a2.2 2.2 0 0 1-.366-1.24q0-.634.328-1.143c.327-.51.525-.63.922-.874q.597-.366 1.462-.568a8.5 8.5 0 0 1 1.921-.2 12.9 12.9 0 0 1 3.346.47q.864.24 1.682.605a9.3 9.3 0 0 1 1.51.845v-5.745a15 15 0 0 0-3.067-.798c-1.663-.26-2.381-.26-3.816-.26m-35.146 5.662h7.85v22.47h6.25v-22.47h7.888V33.85H19.495zm84.445-20.076h-9.946v30.733h-4.03V18.82h-9.946v-3.68h23.833v3.673h.09zm19.086 6.182-11.29 28.493c-2.061 5.107-4.839 7.615-8.512 7.615-.985 0-1.882-.09-2.599-.269v-3.495c.806.269 1.612.454 2.329.454 1.97 0 3.495-1.164 4.48-3.584l1.97-4.66-9.587-24.551h4.39l6.631 18.906c.089.269.269.895.53 1.881h.179c.089-.358.269-.985.455-1.792l6.988-18.995h4.032zm6.631 21.056h-.082v14.875h-3.943v-35.84h3.943v4.3h.089c1.97-3.225 4.749-4.927 8.512-4.927 3.137 0 5.645 1.076 7.437 3.315 1.791 2.24 2.687 5.107 2.687 8.87 0 4.123-.985 7.437-2.956 9.856-1.972 2.42-4.749 3.674-8.245 3.674-3.226 0-5.645-1.344-7.436-4.122zm-.082-9.945v3.405c0 2.061.627 3.763 1.97 5.197 1.343 1.433 2.957 2.15 5.018 2.15 2.419 0 4.211-.895 5.645-2.778 1.434-1.882 2.061-4.39 2.061-7.615 0-2.778-.627-4.838-1.881-6.452-1.254-1.515-2.957-2.329-5.108-2.329-2.329 0-4.122.806-5.554 2.42s-2.151 3.582-2.151 6.002m43.008 2.15H155.2c.09 2.779.807 4.84 2.24 6.362s3.316 2.24 5.824 2.24c2.778 0 5.287-.895 7.616-2.778v3.674c-2.151 1.612-5.018 2.33-8.602 2.33-3.495 0-6.183-1.077-8.154-3.316q-2.956-3.36-2.956-9.408c0-3.854 1.076-6.9 3.225-9.318 2.15-2.42 4.839-3.585 8.064-3.585 3.226 0 5.735 1.076 7.437 3.138 1.792 2.06 2.599 4.927 2.599 8.691v1.97zm-4.031-3.314c0-2.24-.53-4.032-1.612-5.286-1.082-1.255-2.599-1.882-4.48-1.882s-3.405.628-4.749 1.97c-1.254 1.345-2.061 3.046-2.42 5.197h13.261zm6.183 13.44v-2.688c2.501 1.613 4.928 2.33 7.527 2.33 2.688 0 4.749-.53 6.092-1.703 1.434-1.076 2.062-2.688 2.062-4.66 0-1.792-.455-3.137-1.434-4.212-.896-1.076-2.957-2.5-6.092-4.3-3.495-2.062-5.735-3.764-6.631-5.108a8.5 8.5 0 0 1-1.433-4.749c0-2.42.985-4.48 2.867-6.183 1.882-1.704 4.387-2.508 7.524-2.508q3.092 0 6.184 1.076v2.5a16 16 0 0 0-6.452-1.344c-2.329 0-4.211.627-5.554 1.792s-2.061 2.688-2.061 4.48.454 3.137 1.433 4.212c.896 1.076 2.957 2.419 6.093 4.211q4.838 2.688 6.451 4.838c1.075 1.434 1.613 3.046 1.613 4.928 0 2.6-.896 4.749-2.778 6.452-1.792 1.702-4.391 2.5-7.795 2.5-1.165 0-2.501-.179-4.122-.53-1.434-.455-2.599-.896-3.495-1.345zm38.976.09c-1.792 1.075-4.031 1.702-6.541 1.702-3.315 0-6.003-1.165-8.064-3.404-2.061-2.33-3.046-5.287-3.046-9.05 0-3.943 1.165-7.078 3.495-9.587q3.495-3.764 8.87-3.763c1.882 0 3.674.358 5.466 1.164v2.5a10.97 10.97 0 0 0-5.824-1.612c-2.868 0-5.197 1.076-6.989 3.137s-2.699 4.755-2.699 8.078c0 3.226.806 5.735 2.419 7.706 1.614 1.972 3.763 2.868 6.452 2.868 2.419 0 4.569-.628 6.451-1.97v2.24zm14.875-21.146c-.717-.53-1.613-.807-2.599-.807q-2.956 0-4.838 2.957c-1.345 1.97-1.971 4.838-1.971 8.512v11.559h-2.158V25.003h2.15v5.466h.089c.531-1.881 1.434-3.315 2.688-4.39 1.254-1.076 2.599-1.516 4.211-1.516a6.7 6.7 0 0 1 2.42.455v2.33zm3.763-8.512c-.455 0-.896-.18-1.254-.53-.359-.352-.531-.807-.531-1.345s.179-.985.531-1.254c.358-.358.806-.455 1.254-.455.53 0 .896.18 1.344.455.359.358.531.717.531 1.254s-.179.985-.531 1.344c-.454.359-.806.53-1.344.53zm-1.076 30.822V25.093h2.24v24.551h-2.248zm9.945-4.39h-.089v15.68h-2.24v-35.84h2.24V30.2h.089c.896-1.792 2.151-3.226 3.763-4.212s3.405-1.433 5.377-1.433c3.137 0 5.554 1.076 7.347 3.225s2.599 5.108 2.599 8.781c0 4.122-.985 7.437-3.046 9.946-1.97 2.5-4.66 3.763-7.975 3.763-3.584-.09-6.272-1.703-8.064-5.018h-.001zm-.089-9.139v3.137c0 2.5.806 4.57 2.329 6.362s3.585 2.687 6.093 2.687 4.569-1.076 6.092-3.225 2.329-5.018 2.329-8.512c0-3.046-.716-5.555-2.15-7.347s-3.405-2.688-5.735-2.688c-2.867 0-5.107.985-6.63 2.867s-2.33 4.122-2.33 6.72zm32.881 13.17c-1.164.53-2.24.806-3.226.806-3.673 0-5.465-2.15-5.465-6.54V27.063h-4.391v-2.061h4.391V18.64c.358-.09.717-.269 1.076-.358.359-.09.717-.27 1.076-.359v7.169h6.451v2.061h-6.451V43.37c0 1.703.269 2.957.806 3.674s1.434 1.165 2.688 1.165c.895 0 1.881-.27 2.957-.896v1.97h.089-.001z"></path></svg>